<?xml version="1.0" encoding="UTF-8"?>
<svg id="Capa_1" data-name="Capa 1" xmlns="http://www.w3.org/2000/svg" xmlns:xlink="http://www.w3.org/1999/xlink" viewBox="0 0 792 612">
  <defs>
    <style>
      .cls-1, .cls-2, .cls-3, .cls-4 {
        font-family: KohinoorDevanagari-Semibold, 'Kohinoor Devanagari';
        font-weight: 600;
      }

      .cls-1, .cls-2, .cls-5 {
        font-size: 21px;
      }

      .cls-1, .cls-6 {
        fill: #13263d;
      }

      .cls-7 {
        letter-spacing: 0em;
      }

      .cls-2, .cls-8, .cls-4, .cls-9, .cls-10, .cls-5 {
        fill: #fff;
      }

      .cls-11 {
        letter-spacing: -.04em;
      }

      .cls-12 {
        clip-path: url(#clippath);
      }

      .cls-13, .cls-14, .cls-15, .cls-16, .cls-17, .cls-18, .cls-19, .cls-20, .cls-6, .cls-21, .cls-22, .cls-23, .cls-24, .cls-25, .cls-9, .cls-26 {
        stroke-width: 0px;
      }

      .cls-13, .cls-27 {
        fill: none;
      }

      .cls-28 {
        fill: #010101;
        font-family: AdelleSansDevanagari-Regular, 'Adelle Sans Devanagari';
        font-size: 16px;
      }

      .cls-28, .cls-29, .cls-4, .cls-30, .cls-10 {
        isolation: isolate;
      }

      .cls-14 {
        fill: url(#linear-gradient);
      }

      .cls-31 {
        letter-spacing: -.06em;
      }

      .cls-8 {
        stroke: #fff;
        stroke-width: 2px;
      }

      .cls-8, .cls-27 {
        stroke-miterlimit: 10;
      }

      .cls-32 {
        font-family: KohinoorDevanagari-Bold, 'Kohinoor Devanagari';
        font-weight: 700;
      }

      .cls-33 {
        clip-path: url(#clippath-1);
      }

      .cls-34 {
        clip-path: url(#clippath-2);
      }

      .cls-35 {
        letter-spacing: 0em;
      }

      .cls-29 {
        opacity: .98;
      }

      .cls-36 {
        letter-spacing: -.06em;
      }

      .cls-37 {
        letter-spacing: -.06em;
      }

      .cls-38 {
        letter-spacing: -.06em;
      }

      .cls-39 {
        letter-spacing: -.06em;
      }

      .cls-27 {
        stroke: #13263d;
      }

      .cls-40 {
        letter-spacing: -.05em;
      }

      .cls-41 {
        letter-spacing: -.05em;
      }

      .cls-15 {
        fill: #9bd7f1;
      }

      .cls-15, .cls-16 {
        fill-rule: evenodd;
      }

      .cls-16 {
        fill: #8bd2f2;
      }

      .cls-42 {
        letter-spacing: -.05em;
      }

      .cls-17 {
        fill: url(#linear-gradient-2);
      }

      .cls-43 {
        letter-spacing: -.08em;
      }

      .cls-44 {
        letter-spacing: -.04em;
      }

      .cls-45 {
        letter-spacing: -.04em;
      }

      .cls-4 {
        font-size: 23.59px;
        letter-spacing: -.04em;
      }

      .cls-4, .cls-10 {
        opacity: .97;
      }

      .cls-46 {
        letter-spacing: -.07em;
      }

      .cls-47 {
        letter-spacing: -.12em;
      }

      .cls-18 {
        fill: #f8f19c;
      }

      .cls-19 {
        fill: #2b3b8e;
      }

      .cls-20 {
        fill: #6daccc;
      }

      .cls-21 {
        fill: #d1cf7c;
      }

      .cls-22 {
        fill: #d6d6d4;
      }

      .cls-23 {
        fill: #bd1d33;
      }

      .cls-24 {
        fill: #7cb6d1;
      }

      .cls-25 {
        fill: #f39222;
      }

      .cls-26 {
        fill: #efd01d;
      }

      .cls-48 {
        letter-spacing: -.07em;
      }

      .cls-49 {
        letter-spacing: -.05em;
      }

      .cls-10 {
        font-family: KohinoorDevanagari-Regular, 'Kohinoor Devanagari';
        font-size: 18px;
      }
    </style>
    <clipPath id="clippath">
      <rect class="cls-13" x="354" y="439" width="72.59" height="61.15"/>
    </clipPath>
    <clipPath id="clippath-1">
      <path class="cls-13" d="m294.46,594.41l-45.28-44.4c5.91-3.55,11.94-5.02,18.28-5.02,18.01,0,38.54,11.81,66.1,21.2l-.44,2.57c-3.49.06-6.86.48-10.05,1.21l-1.57-1.03,1.42,1.07c-7.05,1.63-13.24,4.75-18.1,8.83-8.14,1.22-13.59,3.4-13.59,5.88,0,1.51,2.02,2.91,5.45,4.05-.96,1.82-1.7,3.71-2.21,5.65m53.69-23.74c-4.85-1.32-9.59-1.92-14.13-1.92-.19,0-.38,0-.57,0l.26-2.51c4.61,1.57,9.42,3.07,14.44,4.43"/>
    </clipPath>
    <clipPath id="clippath-2">
      <path class="cls-13" d="m249.19,550.01c36.84-20.26,81.15-9.57,98.97,20.66-24.49-8.85-48.77,1.84-54.23,20.66-14.91-13.77-29.82-27.55-44.74-41.32"/>
    </clipPath>
    <linearGradient id="linear-gradient" x1="1233.34" y1="-577" x2="1332.08" y2="-577" gradientTransform="translate(-9933.74 -3202.99) rotate(40.98) scale(6.7)" gradientUnits="userSpaceOnUse">
      <stop offset="0" stop-color="#5ca0d5"/>
      <stop offset="1" stop-color="#316a99"/>
    </linearGradient>
    <linearGradient id="linear-gradient-2" x1="-1164.73" y1="2723.81" x2="-1119.96" y2="2723.81" gradientTransform="translate(-19432.8 4200.68) rotate(-125) scale(6.7)" gradientUnits="userSpaceOnUse">
      <stop offset="0" stop-color="#ffd43e"/>
      <stop offset="1" stop-color="#ffe975"/>
    </linearGradient>
  </defs>
  <rect class="cls-9" width="792" height="612"/>
  <polygon class="cls-25" points="792 118.51 792 337.92 791.65 345.26 0 299.66 0 72.89 792 118.51"/>
  <line id="line949" class="cls-27" x1="289.33" y1="488.91" x2="483.06" y2="488.91"/>
  <g id="Logo_Django_Girls" data-name="Logo Django Girls">
    <path id="path1020" class="cls-25" d="m477.24,28.15h8.68v40.09c-3.7.77-7.47,1.17-11.25,1.19-10.57,0-16.09-4.78-16.09-14s5.83-14.54,14.93-14.54c1.27-.02,2.53.12,3.76.42v-13.21l-.03.05Zm0,20.16c-.95-.3-1.95-.44-2.95-.42-4.4,0-6.93,2.67-6.93,7.45s2.43,7.13,6.86,7.13c1,0,2.01-.08,3-.21l.02-13.95Z"/>
    <path id="path1022" class="cls-25" d="m499.68,41.53v20.07c0,6.92-.49,10.22-2,13.1-1.4,2.78-3.27,4.5-7.06,6.43l-8-3.79c3.8-1.83,5.69-3.38,6.85-5.8s1.62-5.34,1.62-12.9v-17.11h8.59Zm-8.68-13.35h8.68v8.89h-8.68v-8.89Z"/>
    <path id="path1024" class="cls-25" d="m504.91,43.5c3.57-1.73,7.49-2.61,11.46-2.56,4.42,0,7.38,1.19,8.68,3.47.73,1.3.94,3,.94,6.58v17.6c-4.09.62-8.22.95-12.36,1-7.28,0-10.54-2.53-10.54-8.15,0-6.08,4.32-8.89,15-9.81v-1.98c0-1.55-.8-2.14-3-2.14-3.55.08-7.04.98-10.19,2.63v-6.64h.01Zm13.53,13.77c-5.73.6-7.59,1.44-7.59,3.69,0,1.69,1.06,2.46,3.44,2.46,1.4,0,2.81-.13,4.19-.38v-5.77h-.04Z"/>
    <path id="path1026" class="cls-25" d="m530.24,42.84c4.43-1.26,9-1.93,13.6-2,4.43,0,7.66,1,9.59,3s2.35,3.9,2.35,8.18v17h-8.67v-16.59c0-3.31-1.13-4.57-4.22-4.57-1.36,0-2.71.2-4,.63v20.59h-8.67l.02-26.24Z"/>
    <path id="path1028" class="cls-25" d="m559.13,73.84c2.86,1.51,6.04,2.3,9.27,2.32,5.7,0,8.08-2.32,8.08-7.8v-.17c-1.75.85-3.68,1.26-5.62,1.19-7.59,0-12.44-5-12.44-13,0-9.84,7.17-15.43,19.82-15.43,3.8.02,7.59.43,11.31,1.23l-3,6.26c-2.32-.43-.18-.07-1.93-.22v.92l.1,3.65.07,4.71c.07,1.19.07,2.35.11,3.55v2.35c0,7.45-.64,10.93-2.46,13.81-2.67,4.22-7.38,6.33-14,6.33-3.19.06-6.36-.53-9.31-1.73v-7.97Zm17.21-25.88h-.91c-1.75-.06-3.48.37-5,1.23-2.08,1.2-3.17,3.31-3.17,6.36,0,4.32,2.15,6.82,5.94,6.82,1.12,0,2.22-.21,3.27-.6v-2.93c0-1-.07-2.15-.07-3.31v-4l-.16-2.9.07-.67h.03Z"/>
    <path id="path1030" class="cls-25" d="m603.01,40.84c8.68,0,14,5.44,14,14.3s-5.52,14.72-14.3,14.72-14-5.45-14-14.23c-.03-9.14,5.53-14.79,14.3-14.79Zm-.17,22c3.3,0,5.3-2.78,5.3-7.56s-1.93-7.55-5.23-7.55-5.41,2.77-5.41,7.55,1.96,7.56,5.34,7.56h0Z"/>
    <path id="path1032" class="cls-25" d="m635.41,91.95c-.94.11-1.9.04-2.81-.21-.87-.21-1.7-.57-2.46-1.05-.69-.45-1.28-1.03-1.73-1.72-.38-.65-.52-1.41-.38-2.15.64,0,1.28.13,1.86.39.53.28,1.05.6,1.58.95s1.09.67,1.69,1c.67.28,1.39.41,2.11.38,1.78.06,3.53-.39,5.06-1.3,1.35-.86,2.48-2.02,3.3-3.4.85-1.49,1.45-3.1,1.79-4.78.35-1.8.53-3.62.53-5.45,0-.46,0-1.23-.07-2.28s-.11-2.22-.18-3.48-.14-2.64-.21-4.11-.18-2.81-.25-4.11-.17-2.46-.24-3.48-.18-1.79-.21-2.29c-.28.71-.64,1.52-1.06,2.53s-.88,2.08-1.4,3.17c-.54,1.14-1.16,2.24-1.83,3.3-.65,1.07-1.4,2.08-2.25,3-.8.83-1.71,1.54-2.7,2.11-.96.53-2.04.8-3.13.81-.59,0-1.13-.34-1.37-.88-.35-.63-.6-1.3-.77-2-.17-.74-.28-1.49-.32-2.25,0-.74-.07-1.26-.07-1.54-.18-2.18-.18-4.36,0-6.54.14-2.06.5-4.09,1.05-6.08.48-1.77,1.19-3.47,2.11-5.06.78-1.42,1.87-2.65,3.19-3.59,1.3-.86,2.8-1.35,4.36-1.44,1.9-.06,3.79.33,5.52,1.13.52-.07.91.24,1.12,1,.2.83.29,1.68.25,2.53,0,1.06-.07,2.11-.18,3.16-.1,1.09-.17,2-.21,2.81,0,1.79.07,3.58.21,5.38s.28,3.58.49,5.37.36,3.55.5,5.34.21,3.55.21,5.38c0,2.19-.22,4.38-.64,6.53-.37,2.22-1.09,4.37-2.14,6.36-.95,1.89-2.32,3.54-4,4.82-1.88,1.21-4.09,1.82-6.32,1.74Zm-3.17-30.28v1.26c0,.49.07.97.21,1.44.1.44.31.85.6,1.2.28.32.69.5,1.12.49,1.04-.02,2.01-.5,2.67-1.3.92-1.01,1.69-2.14,2.29-3.37.75-1.48,1.41-2.99,1.97-4.55.57-1.59,1.05-3.21,1.44-4.85.39-1.58.7-3,.91-4.32.18-.95.28-1.91.32-2.88-1.71-.78-3.67-.78-5.38,0-1.54.86-2.78,2.15-3.58,3.72-.96,1.92-1.64,3.97-2,6.08-.42,2.34-.61,4.71-.57,7.08Z"/>
    <path id="path1034" class="cls-25" d="m652.83,35.53c-.3-.01-.58-.1-.84-.25-.31-.16-.59-.39-.81-.67-.21-.25-.36-.53-.45-.84-.09-.27-.03-.57.17-.77.15-.47.44-.87.84-1.16.38-.32.82-.56,1.3-.7.38-.13.78-.13,1.16,0,.32.14.5.53.5,1.16,0,.32,0,.67-.07,1-.04.35-.15.69-.32,1-.14.3-.34.56-.6.77-.22.27-.54.43-.88.46Zm2.18,33.31c-.24,0-.47-.04-.7-.1-.29-.08-.57-.19-.84-.32-.26-.12-.5-.29-.71-.49-.18-.18-.28-.42-.28-.67v-24.91c0-.25.11-.49.28-.67.21-.2.44-.36.7-.49.24-.15.51-.27.78-.35.23-.07.47-.1.71-.11l.06,28.11Z"/>
    <path id="path1036" class="cls-25" d="m658.7,47.65c-.1-.42-.25-1-.39-1.72s-.31-1.37-.45-2.11c-.14-.69-.21-1.38-.21-2.08-.03-.53.08-1.06.31-1.54.23-.4.63-.66,1.09-.7.78.02,1.54.26,2.18.7.07.35.18.91.28,1.76s.25,1.68.39,2.56c.14.88.24,1.79.35,2.57.08.58.13,1.16.14,1.75.64-1.4,1.44-2.72,2.39-3.93.98-1.23,2.11-2.33,3.37-3.27,1.27-.95,2.68-1.7,4.18-2.21,1.56-.56,3.2-.84,4.85-.85l-.49,2.95c-2.27.38-4.4,1.35-6.18,2.81-1.98,1.55-3.61,3.5-4.78,5.73-1.35,2.56-2.22,5.35-2.57,8.22-.4,3.41-.24,6.87.49,10.23l-3.26.7c-.08-.42-.13-.84-.14-1.26-.07-.81-.14-1.87-.25-3.13s-.21-2.71-.32-4.29-.21-3.16-.31-4.74-.21-3.09-.32-4.53-.28-2.71-.35-3.62Z"/>
    <path id="path1038" class="cls-25" d="m679.5,23.84l2.92-.39c.14,1.83.24,4,.38,6.47s.21,5.13.32,7.87.18,5.55.21,8.43.14,5.55.18,8.08.1,4.85.17,6.89.14,3.65.25,4.81c0,.47-.08.93-.25,1.37-.11.39-.33.73-.63,1-.24.19-.57.21-.84.07-.42-.25-.72-.65-.85-1.12l-1.86-43.48Z"/>
    <path id="path1040" class="cls-25" d="m686.39,58.71c.2-.47.55-.87,1-1.12.48-.15.98-.2,1.48-.14,1.23,1.12,2.49,2.21,3.79,3.2,1.26,1,2.63,1.86,4.08,2.56,1.44.71,2.93,1.3,4.46,1.76,1.63.45,3.31.67,5,.67h1.19c.42,0,.83-.06,1.23-.18.37-.11.7-.31.95-.6.27-.34.41-.76.39-1.19-.17-1.08-.75-2.05-1.62-2.71-1.07-.85-2.22-1.59-3.44-2.21-1.34-.7-2.81-1.41-4.29-2.18-1.46-.7-2.85-1.55-4.14-2.53-1.18-.91-2.2-2.01-3-3.27-.79-1.33-1.1-2.89-.87-4.42-.02-.94.32-1.86.94-2.57.62-.77,1.38-1.43,2.23-1.94.89-.53,1.85-.94,2.84-1.23.84-.26,1.72-.4,2.6-.42,1.54,0,3.07.23,4.54.67,1.47.39,2.86,1.03,4.11,1.89l-1.37,2c-.66-.54-1.43-.94-2.25-1.18-.93-.25-1.88-.38-2.84-.38-.95,0-1.91.07-2.85.21-.86.13-1.69.4-2.46.8-.62.3-1.16.75-1.58,1.3-.35.46-.45,1.07-.28,1.62-.08,1.45.39,2.87,1.3,4,.93,1.06,2.04,1.95,3.27,2.64,1.37.77,2.79,1.44,4.25,2,1.47.55,2.89,1.22,4.25,2,1.23.69,2.34,1.58,3.27,2.64.9,1.1,1.37,2.5,1.3,3.93.03.82-.14,1.64-.49,2.39-.3.56-.75,1.03-1.3,1.34-.6.32-1.26.54-1.94.63-.78.1-1.56.15-2.35.14-1.96-.01-3.9-.26-5.8-.74-2.01-.47-3.96-1.14-5.83-2-1.87-.88-3.66-1.92-5.34-3.12-1.66-1.21-3.15-2.65-4.43-4.26Z"/>
  </g>
  <g class="cls-12">
    <g id="g1089">
      <path id="path1087" class="cls-6" d="m426.8,464.77l-10.15,3.56c-.27.09-.54.15-.81.23-1.82.56-1.86.68-1.34,2.51,1,3.39,1.33,6.79.1,10.21.24.17.62-.24.73.14s-.29.45-.52.54c-.52.2-.95.6-1.19,1.11-.58.97-1.31,1.83-2.18,2.55-.17.15-.45.23-.44.6,1.21.31,2.49.12,3.57-.51.53-.27,1-.59,1.55-.89.15-.09.32-.26.48-.05s0,.41-.19.53c-1.03.72-2.17,1.25-3.38,1.57-2.36.44-4.62,1.32-6.66,2.59-.28.18-.49.46-.57.79-.33.95-.59,1.91-.8,2.89-.04.22-.12.42-.25.6-.18.24-.27.79-.68.54s.1-.52.18-.79c.31-1,.6-2,.92-3,.14-.45-.18-.43-.45-.5s-.42-.13-.47-.39.15-.38.33-.51q1.38-.95,1.67-2.84c-2.16,1-4.27,1.91-6.4,2.84-2.43,1.06-4.88,2.08-7.39,2.94-.58.15-1.01.62-1.1,1.21-.29,1.18-.74,2.32-1.34,3.38-1.16,2.05-3.25,3.41-5.59,3.63-.21,0-.46,0-.59.2h-1.69c-.11-.17-.47-.18-.38-.46s.42-.19.65-.19c2.24,0,4.39-.33,6-2,1.27-1.45,2.12-3.22,2.47-5.12l-1.8.59c-2,.65-3.95,1.4-6,1.89-1.11.21-2,1.06-2.26,2.16-.1.32-.12.94-.55.8s0-.65,0-1c.14-.43.3-.84.49-1.25-2.78.75-5.52,1.66-8.19,2.72-.34.17-.63.41-.86.71-.13.17-.25.55-.56.26s0-.45.17-.64c.52-.62,1.22-1.07,2-1.28,2.34-.88,4.75-1.54,7.14-2.27.4-.08.74-.33.93-.68,2.27-4.41,4.76-8.71,6.73-13.28.57-1.31-.21-2.35-.41-3.5-.08-.41-.55-.07-.8,0-4.41,1.58-8.79,3.23-13.12,5-.89.37-1.78.74-2.67,1.13-.23.1-.62.12-.4.55.89,1.74,1.64,3.59,3.55,4.56,1.7.86,2.69.67,4-.71.79-.89,1.51-1.83,2.18-2.81.16-.22.38-.57.67-.37s-.05.48-.2.67c-.67.98-1.39,1.92-2.17,2.81-1.51,1.7-4.11,1.85-5.8.34-.24-.22-.46-.46-.65-.73-.78-1.01-1.45-2.11-2-3.27-.19-.45-.35-.55-.81-.34-4.6,2.02-9.08,4.32-13.4,6.89-.53.28-.98.68-1.32,1.17-.1.15-.22.36-.44.22s-.13-.38,0-.56c.53-.7,1.21-1.26,2-1.64,3.24-1.89,6.55-3.65,10-5.23.9-.42,1.79-.9,2.72-1.23.75-.26.89-.65.78-1.39-.29-1.92-.47-3.85-.72-5.77-.36-3.25.17-6.53,1.55-9.49,1.4-3.13,3.05-6.14,4.93-9,.23-.38.52-.72.87-1,.65-.55,1.63-.47,2.18.18.06.07.12.15.17.24.72,1.21,1.41,2.44,2.1,3.65.25.58.34,1.22.24,1.84,0,.15,0,.33-.24.34s-.31-.19-.3-.38c.13-2.14-1.63-3.43-2.34-5.2-.24-.61-.92-.59-1.46-.24-.26.18-.48.41-.64.68-2.31,3.45-4.23,7.14-5.73,11-1.15,3.24-1,6.51-.5,9.81.18,1.3.34,2.6.51,3.89.27.13.45,0,.64-.09,5.16-2.22,10.41-4.21,15.7-6.09.59-.21.84-.44.75-1.12-.31-2.69-.06-5.41.72-8,.16-.6.2-1.23.1-1.84-.6-4.23-.65-8.41,1.25-12.39.26-.61.63-1.16,1.09-1.63,1-1,1.81-.77,2.18.56.32,1.18.45,2.41.38,3.63,0,1,.17,1.68,1.3,1.78.22.04.43.1.63.18.19.05.39.12.34.36s-.27.22-.46.19c-.18-.04-.36-.1-.53-.16q-1.21-.39-1.21.83c-.05,5.1-.81,10.17-2.25,15.06-.08.28-.37.63-.09.87s.58-.07.86-.16c3.25-1.09,6.5-2.2,9.75-3.28.52-.17.71-.34.59-1-.64-4.36-.7-8.79-.15-13.17.22-3.38.76-6.72,1.6-10,.63-2.39,1.65-4.66,3-6.72.37-.62.88-1.14,1.49-1.53,1.85-1.09,3.08-.68,4.16,1.16,2.83,4.86,2.85,10,1.94,15.36-.43,2.75-1.02,5.47-1.74,8.15-.28,1,.28,1.76.57,2.58.59,1.66.74,1.69,2.26.78.94-.56,1.87-1.13,2.82-1.68.23-.13.54-.56.78-.14s-.32.43-.52.63-.42.15-.45.42c.37.13.67-.11,1-.21,2.39-.84,4.76-1.69,7.14-2.54.2-.07.41-.19.63,0l.07.46Zm-13-8.58c1-5.34.79-10.35-2-15-.76-1.28-1.37-1.56-2.76-1-.56.2-1.05.56-1.4,1.05-.48.64-.92,1.31-1.32,2-3.43,6.46-3.53,13.57-4,20.61,0,.36.18.4.48.31,2.39-.59,4.71-1.46,6.91-2.58.51-.21.76-.79.55-1.3,0-.02-.01-.03-.02-.05-.45-1.85-.63-3.76-.52-5.67-.04-.9.52-1.72,1.38-2,.95-.06,1.82.53,2.1,1.44.23.72.42,1.45.56,2.19h.04Zm-14.38,32.3l.08.15,6.34-2.89c.86-.52,1.29-1.52,1.07-2.5-1.05-2-1.85-4.16-2.73-6.26-.13-.31-.26-.5-.59-.21-1.22,1.09-3,1.76-2.84,3.87,0,.19-.06.4-.3.37s-.24-.25-.25-.44c-.09-.82.18-1.63.72-2.25.71-.75,1.5-1.42,2.35-2,.33-.17.46-.57.3-.9,0-.01-.01-.02-.02-.03-.31-.75-.58-1.51-.81-2.29-.12-.43-.29-.51-.73-.36-3.42,1.17-6.85,2.32-10.28,3.47-.37.12-.49.29-.35.68.51,1.57,1.18,3.09,2,4.53l.62-1.64c.3-.92.78-1.78,1.39-2.53.32-.36.7-.66,1.22-.37.44.21.66.71.52,1.18-.06.25-.06.5-.13.74-.37,1.29-.57,2.82-1.77,3.5s-.88,1.1-.37,1.84c.21.31.36.66.54,1,.42.84.94,1.62,1.56,2.33.49.75,1.5.97,2.26.47.13-.09.25-.19.35-.31.47-.37.9-.79,1.37-1.14.24-.17.51-.72.81-.36s-.26.59-.49.8c-.64.54-1.26,1.06-1.88,1.55h.04Zm-17.42,6.37c3.11-.91,6-1.84,8.81-2.86.24-.09.39-.32.39-.57.54-2.59,1.06-5.19,1.58-7.78.07-.33,0-.54-.38-.53-1.43.13-2.82-.54-3.61-1.74-1.9,4.62-4.39,8.9-6.79,13.48Zm32.75-18.08c0-2.16-.36-4.3-1.05-6.34-.15-.44-.22-.61-.74-.33-1.61.87-2.86,1.95-3,3.92-.08.46-.19.92-.34,1.36-.63,2.47-1.23,4.95-1.9,7.42-.12.56.08,1.14.53,1.5.33.34.67-.1,1-.25.84-.47,1.72-.89,2.61-1.26,1.93-.61,2.53-2.1,2.81-3.88.1-.71.14-1.42.12-2.14h-.04Zm-12.36-9.78c.02,1.34.15,2.68.37,4,.1.69.27.9,1,.64,1.28-.47,2.62-.82,3.92-1.25,1-.33,2.3-.29,2.93-1s.69-2,1-3c.2-.43.25-.91.15-1.37-.33-.9-.65-1.82-.93-2.74-.15-.49-.34-.46-.72-.23-1.82,1.03-3.76,1.82-5.78,2.35-.64.2-1.51.2-1.87.63s-.07,1.25-.07,1.97Zm-13.49-1.18c.28-.1.3-.31.36-.47.67-1.92,1.57-3.75,2.68-5.45.7-.9,1.02-2.05.88-3.19-.04-1.19-.17-2.37-.4-3.53-.24-.9-.65-1-1.29-.3-.44.49-.79,1.05-1.05,1.65-1.63,3.59-1.65,7.38-1.18,11.25v.04Zm1.78,8.72c1.38-4.79,2.11-9.74,2.15-14.72-.39.12-.47.41-.6.63-.9,1.57-1.7,3.19-2.38,4.87-.59,1.28-.73,2.72-.39,4.08.42,1.6.65,3.25,1.22,5.1v.04Zm19.1-2l-.17-.12c-1.19.84-2.39,1.67-3.57,2.53q-1.65,1.2-.86,3.11c.57,1.55,1.24,3.07,2,4.53.91-3.47,1.76-6.77,2.6-10.07v.02Zm-18,19.12c2.43-.87,4.67-1.75,6.91-2.74-3.23-.56-3.53-3.7-5.24-5.75l-1.67,8.49Zm18.6-21.53l-5,1.55c-2.51.79-2.49.78-1.51,3.26.24.6.42.6.9.25,1.53-1.13,3.07-2.25,4.65-3.31.63-.37,1.01-1.04.99-1.77l-.03.02Zm-.08-14.3c0,1.43.14,2.85.44,4.25.16.71.39.63.82.23,1.55-1.78,1.91-4.3.93-6.44-.23-.5-.76-.79-1.3-.71-.51.12-.87.57-.88,1.09-.03.52-.02,1.04.02,1.56l-.03.02Zm-19.67,20.85c-.45,1.17-.81,2.12-1.17,3.08-.43.85-.09,1.89.77,2.32.02,0,.04.02.05.03.66.35,1.41.51,2.16.47.63,0,.68-.25.4-.75-.89-1.65-1.62-3.38-2.18-5.17l-.03.02Zm-1.87-7.52c-.7,2.32-.91,4.77-.61,7.18,0,.18,0,.38.27.42.86.12,1.65-.47,1.78-1.33.02-.14.02-.29,0-.43-.57-1.93-.93-3.89-1.41-5.86l-.03.02Zm4.92,13.23c.82-.21,1.38-.43,1.69-1.05.54-.98.9-2.05,1.08-3.15,0-.28.16-.58-.16-.75s-.51.13-.67.34c-.91,1.4-1.56,2.96-1.91,4.59l-.03.02Zm15.82,4.07c-1.33-1.18-1.33-1.17-1.8-1-1.31.5-.85,1.8-1.38,2.78,1.26-.17,2.41-.81,3.21-1.8l-.03.02Zm3.52-3.64c-1.34.67-2.45,1.2-3.53,1.79-.23.12-.87.12-.54.58s.77,1,1.27.64c1.18-.76,2.16-1.8,2.83-3.03l-.03.02Zm.18-24c-.4.95-1.04,1.79-1.87,2.41-.24.14-.18.38-.11.58.24.77.51,1.54.83,2.5.54-1.81.94-3.66,1.18-5.53l-.03.04Zm-1,7.63c-.38.9-.65,1.84-.8,2.81q1.77-.43,1.13-2c-.06-.26-.17-.52-.31-.85l-.02.04Zm-22.29,10.55c-1.72.26-1.9.79-.89,2.39l.89-2.39Zm21.09-6.22l1.77-1.19c-.61.29-1.68-.18-1.77,1.19Z"/>
    </g>
  </g>
  <g id="text1255" class="cls-29">
    <text class="cls-4" x="50%" y="188" dominant-baseline="middle" text-anchor="middle">{{name}}</text>
    <text class="cls-10" x="50%" y="223" dominant-baseline="middle" text-anchor="middle">C.C. {{identification}}</text>
  </g>
  <g id="g207840">
    <g id="g194684">
      <path id="path194686" class="cls-25" d="m445.96,551.24h0v-2.49c.03-.11-.04-.22-.14-.24-.02,0-.03,0-.05,0-.48-.12-.97-.15-1.46-.07-.89.07-1.65.65-1.95,1.49-.21.61-.27,1.26-.18,1.9.04.89.59,1.67,1.42,2,.68.22,1.41.27,2.12.14.16,0,.21-.07.21-.23v-2.46l.03-.03Zm-7.18-.61c.06-.28.11-.57.18-.85.46-2.07,2.17-3.64,4.27-3.92.82-.15,1.67-.15,2.49,0,.22,0,.23,0,.23-.2v-4.55c0-.24.06-.3.31-.3h2.81c.17,0,.23,0,.23.22v15c0,.15,0,.22-.2.25-1.61.33-3.25.47-4.89.4-1.25-.01-2.47-.39-3.51-1.08-.99-.71-1.64-1.8-1.8-3,0-.16-.04-.33-.1-.48l-.02-1.49Z"/>
    </g>
    <g id="g194688">
      <path id="path194690" class="cls-25" d="m492.96,588.82v2.45c.03.35.28.64.62.71.34.08.69-.12.78-.46.09-.26.13-.54.13-.82v-3.7c0-.26-.03-.52-.11-.77-.05-.34-.36-.58-.7-.53-.02,0-.03,0-.05,0-.38.04-.67.37-.68.75v2.36h0Zm.99,4.37c-.48-.11-.9-.42-1.16-.84-.07.17-.11.35-.12.54,0,.14-.06.22-.23.21-.28-.02-.56-.02-.84,0-.15,0-.2-.05-.19-.19,0-.03,0-.07,0-.1v-10.56c0-.23.06-.31.29-.3.33.02.67.02,1,0,.2,0,.24.07.24.25,0,1,0,2-.05,2.92v.17l.18-.19c.56-.65,1.55-.73,2.2-.17.2.17.35.38.44.63.22.55.33,1.14.32,1.74v3.14c-.01.41-.07.83-.16,1.23-.1.72-.61,1.31-1.31,1.52h-.61Z"/>
    </g>
    <g id="g194692">
      <path id="path194694" class="cls-25" d="m463.53,593.19c-.1-.08-.23,0-.34-.07-.87-.23-1.53-.95-1.68-1.84-.11-.41-.16-.83-.16-1.26v-4.36c0-.48.07-.96.21-1.42.28-1.17,1.44-1.92,2.62-1.68,1.51.13,2,1.16,1.87,2.55,0,.24-.06.47-.09.7s-.06.21-.22.21h-.91c-.3,0-.19,0-.19-.19.02-.44-.01-.88-.09-1.32-.03-.14-.07-.27-.14-.4-.17-.31-.57-.43-.88-.26-.11.06-.2.15-.26.26-.16.27-.24.58-.24.9v5.89c0,.19.03.39.09.57.06.32.34.55.67.55.34.04.65-.17.74-.5.09-.25.13-.52.12-.79,0-.31-.12-.71.05-.89s.59,0,.9,0h.36c.1,0,.16,0,.15.14.03.57,0,1.15-.09,1.72-.14.82-.81,1.44-1.64,1.53h-.14l-.71-.04Z"/>
    </g>
    <g id="g194696">
      <path id="path194698" class="cls-25" d="m470.13,588.85v-1.8c0-.34-.06-.68-.19-1-.08-.22-.29-.37-.53-.36-.23-.02-.45.11-.55.32-.11.21-.18.44-.19.68-.11,1.33-.06,2.67,0,4,0,.32.07.64.2.94.11.23.35.37.6.35.24,0,.46-.17.53-.4.07-.16.11-.33.13-.51.05-.74.05-1.49,0-2.23h0Zm-1.17,4.33c-.07-.08-.17,0-.26-.07-.57-.15-1.03-.55-1.25-1.09-.25-.59-.38-1.21-.39-1.85-.07-1.14-.05-2.28.08-3.42.04-.26.1-.51.18-.76.2-.79.89-1.36,1.7-1.42,1.07-.26,2.16.39,2.42,1.47,0,.03.01.06.02.09.05.15.09.31.11.47.23,1.57.21,3.17-.07,4.74-.1.53-.37,1.01-.76,1.37-.31.25-.68.42-1.07.47h-.71Z"/>
    </g>
    <g id="g194700">
      <path id="path194702" class="cls-25" d="m479.16,588.85v-1.49c.02-.43-.05-.86-.19-1.27-.07-.24-.29-.4-.54-.39-.24-.02-.47.12-.57.34-.12.25-.19.52-.2.79-.08,1.35-.08,2.7,0,4.05.01.28.09.55.21.8.11.2.34.32.57.31.23,0,.43-.14.51-.35.06-.13.1-.27.13-.41.1-.79.13-1.59.09-2.38h-.01Zm-1.15,4.34c-.08-.08-.19,0-.29-.07-.56-.14-1.01-.55-1.23-1.08-.25-.55-.39-1.14-.4-1.74-.07-1.12-.07-2.23,0-3.35.04-.34.13-.68.25-1,.33-1,1.38-1.58,2.4-1.32.74.04,1.38.54,1.6,1.25.22.59.33,1.22.33,1.86.08,1.11.04,2.23-.11,3.34-.07.43-.22.84-.44,1.21-.28.51-.79.85-1.36.91h-.75Z"/>
    </g>
    <g id="g194704">
      <path id="path194706" class="cls-25" d="m503.19,590.37v-1.19c0-.08,0-.18-.13-.12-.97.29-1.55,1.29-1.31,2.28.06.42.45.71.87.65.17-.02.32-.1.44-.22.09-.07.14-.17.13-.28v-1.12h0Zm-1.69,2.82c-1.66-.34-1.74-3.14-.37-4.15.55-.42,1.16-.76,1.81-1,.17-.04.28-.2.25-.37v-1.27c0-.43-.2-.69-.57-.74-.38-.06-.74.17-.86.53-.09.26-.13.54-.1.82,0,.25-.07.31-.3.29-.22-.02-.44-.02-.66,0-.18,0-.26-.05-.28-.22-.06-.33-.06-.67,0-1,.08-.66.55-1.22,1.19-1.41.65-.2,1.35-.2,2,0,.52.15.91.58,1,1.11.08.33.12.66.11,1v6.09c0,.21-.06.26-.25.25s-.49,0-.74,0-.17,0-.19-.16c-.01-.18-.05-.35-.11-.52-.32.41-.79.69-1.3.78l-.63-.03Z"/>
    </g>
    <g id="g194708">
      <path id="path194710" class="cls-25" d="m480.54,551.36c0,.16,0,.37.05.58.05.78.52,1.47,1.23,1.79.69.26,1.46.26,2.15,0,.11,0,.12-.11.12-.2v-4.99c0-.11,0-.15-.13-.16-.83-.07-1.65.15-2.34.61-.7.57-1.08,1.45-1,2.35l-.08.02Zm3.62,4.8c-.59.27-1.23.42-1.88.44-2.46.3-4.69-1.45-4.99-3.9,0-.03,0-.06-.01-.1-.25-1.37-.01-2.78.67-4,.76-1.24,1.98-2.14,3.4-2.49,1.5-.42,3.07-.56,4.62-.43.96.07,1.92.19,2.86.38.1.01.19.03.29.06,0,.09-.02.17-.07.24-.31.65-.63,1.3-.92,2-.08.16-.17.22-.33.17h-.08c-.41-.08-.44-.06-.43.36,0,2,.12,4.06.1,6.09.03,1.09-.08,2.18-.33,3.24-.47,1.88-2.01,3.3-3.92,3.62-1.81.41-3.7.29-5.44-.35-.14-.03-.24-.17-.22-.31v-2.58c0-.22,0-.26.24-.16,1.12.56,2.35.82,3.6.78.37-.01.74-.07,1.1-.16.93-.24,1.6-1.04,1.67-2,.04-.3.04-.6,0-.9h.07Z"/>
    </g>
    <g id="g194712">
      <path id="path194714" class="cls-25" d="m496.23,551.23c0-.29-.01-.58-.06-.86-.07-.61-.34-1.18-.77-1.62-.79-.67-1.98-.57-2.65.22-.16.18-.27.39-.35.62-.39,1.06-.39,2.22,0,3.28.24.78.97,1.29,1.78,1.25.8.01,1.51-.5,1.75-1.26.2-.52.29-1.07.27-1.63h.03Zm-1.97-5.57c.86-.02,1.71.14,2.49.49,1.33.58,2.31,1.77,2.62,3.19.36,1.34.32,2.77-.14,4.08-.6,1.86-2.26,3.17-4.2,3.32-.91.14-1.84.08-2.72-.17-1.61-.4-2.88-1.64-3.31-3.25-.45-1.47-.39-3.05.18-4.48.64-1.71,2.18-2.92,4-3.11.35-.05.71-.07,1.06-.07h.02Z"/>
    </g>
    <g id="g194716">
      <path id="path194718" class="cls-25" d="m466.36,551.46v-4.77c0-.15,0-.23.19-.28,1.83-.5,3.72-.73,5.62-.68.69.02,1.36.16,2,.41,1.12.42,1.88,1.47,1.94,2.66.04.68.04,1.37,0,2.05v5.43c0,.2,0,.26-.25.26h-2.82c-.22,0-.26-.07-.26-.28v-6.52c.05-.7-.47-1.31-1.17-1.36-.06,0-.12,0-.18,0-.55-.03-1.1.03-1.63.19-.13,0-.14.1-.14.22v7.43c0,.21,0,.3-.28.29h-2.81c-.2,0-.26,0-.25-.25v-4.8h.04Z"/>
    </g>
    <g id="g194720">
      <path id="path194722" class="cls-25" d="m461.81,553.13h0v-.49c0-.16.09-.46,0-.58s-.38,0-.58,0h-.08c-.62.04-1.23.19-1.79.46-.38.23-.57.69-.45,1.12.07.36.38.62.75.64.67.08,1.34.06,2-.07.13,0,.13-.1.13-.2v-.91l.02.03Zm-5.22-3.95v-2.38c0-.18.14-.19.24-.24,1.42-.65,2.98-.94,4.54-.87.55.02,1.1.11,1.62.29.97.29,1.63,1.17,1.64,2.18,0,.49.05,1,.05,1.47v6.4c0,.23-.08.3-.29.32-.91.11-1.83.21-2.75.26-.89.07-1.77.07-2.66,0-.5-.04-.99-.15-1.45-.33-.81-.29-1.4-.99-1.55-1.84-.3-1.03-.09-2.15.58-3,.41-.45.92-.8,1.5-1,1-.36,2.03-.58,3.09-.66.47,0,.46,0,.47-.49,0-.9-.23-1.11-1.1-1.11-1.26,0-2.51.3-3.64.86l-.26.11h0l-.03.03Z"/>
    </g>
    <g id="g194724">
      <path id="path194726" class="cls-25" d="m453.09,576.24v.36c-.02.46.06.91.21,1.34.12.37.52.58.9.46.43-.1.81-.35,1.08-.71.4-.46.73-.98,1-1.53.71-1.51,1.24-3.1,1.57-4.74.18-.75.31-1.52.37-2.29,0-.1,0-.21-.11-.25-.75-.31-1.6-.28-2.33.09-.78.46-1.39,1.16-1.73,2-.7,1.67-1.02,3.47-.95,5.28h-.01Zm5.52-2.76c-.11.29-.23.57-.35.86-.53,1.37-1.23,2.67-2.1,3.86-.42.55-.94,1.02-1.54,1.38-.41.23-.86.37-1.32.41-.34.06-.67-.12-.81-.43-.29-.59-.44-1.23-.46-1.89-.09-1.05-.11-2.11-.06-3.16.06-1.79.5-3.54,1.3-5.14.96-2.14,3.47-3.1,5.62-2.14.01,0,.03.01.04.02.16.07.33.12.51.15.2,0,.28.2.34.37.08.33.12.66.12,1,0,.76-.07,1.51-.13,2.26-.08.95-.08,1.91,0,2.86.16,2.4.55,4.79.55,7.2.04,1.76-.26,3.51-.88,5.16-.41,1.06-1.08,2-1.94,2.75-.78.65-1.74,1.01-2.75,1.05-.9.1-1.82-.09-2.6-.55-.51-.28-.88-.76-1-1.33-.07-.38,0-.46.39-.39.18.03.36.09.52.19l.7.41c1.32.82,3.02.72,4.23-.26.96-.79,1.62-1.9,1.85-3.12.28-1.2.37-2.43.28-3.65-.09-1.73-.18-3.46-.28-5.19-.04-.88-.13-1.76-.26-2.63l.03-.05Z"/>
    </g>
    <g id="g194728">
      <path id="path194730" class="cls-25" d="m448.02,559.7l.86-.47c1.24-.65,2.07-1.88,2.22-3.27.14-1.2.19-2.4.16-3.61v-6.12c0-.24.07-.29.29-.29h2.81c.17,0,.23,0,.23.22v8.43c.02,1.01-.1,2.02-.34,3-.41,1.57-1.51,2.87-3,3.52-.07.03-.14.03-.21,0l-3-1.41h-.02Z"/>
    </g>
    <g id="g194732">
      <path id="path194734" class="cls-25" d="m486.74,579.61c-3.56-.1-6.92-1.66-9.3-4.31-.11-.09-.13-.25-.05-.36.01-.02.03-.03.05-.05.27-.37.79-.45,1.16-.18.02.01.03.03.05.04,1.2,1.16,2.59,2.1,4.11,2.77,1.29.54,2.68.76,4.07.67.82,0,1.15-.63.79-1.38-.12-.23-.28-.44-.48-.61-.43-.39-.91-.72-1.42-1-1-.54-2-1-3-1.56-.85-.45-1.58-1.08-2.16-1.85-.53-.76-.71-1.71-.52-2.61.13-.54.46-1.02.93-1.32,1.21-.96,2.81-1.31,4.31-.94.8.16,1.56.45,2.26.87.14.09.19.15.06.3s-.28.39-.41.58-.09.12-.2,0c-.48-.34-1.04-.54-1.63-.58-1.03-.14-2.07.03-3,.5-.25.13-.46.32-.61.56-.09.12-.14.28-.12.43.01.28.04.55.08.83.09.5.32.97.67,1.34.71.69,1.56,1.24,2.48,1.6.87.34,1.72.73,2.55,1.16.6.31,1.14.75,1.57,1.27.56.7.73,1.64.45,2.49-.23.69-.87,1.16-1.6,1.16-.33.05-.67.07-1,.08l-.09.1Z"/>
    </g>
    <g id="g194736">
      <path id="path194738" class="cls-25" d="m483.44,585.52c.88-1.28,2.64-1.28,3.12,0l.19-.24c.43-.51,1.09-.76,1.75-.66.73.11,1.27.73,1.27,1.47v6.77c0,.23-.07.29-.29.28-.33-.02-.67-.02-1,0-.22,0-.25-.07-.25-.26v-6c.03-.2.03-.41,0-.61-.04-.33-.34-.56-.67-.52,0,0-.01,0-.02,0-.43.05-.76.4-.79.83v6.27c0,.26-.07.31-.31.3-.33-.02-.67-.02-1,0-.23,0-.3-.05-.3-.29v-5.94c.03-.23.03-.45,0-.68-.06-.33-.38-.55-.71-.49-.03,0-.05.01-.08.02-.39.1-.67.44-.68.85v6.24c0,.24-.07.3-.29.29-.33-.02-.67-.02-1,0-.22,0-.29-.05-.29-.29v-7.99c0-.18,0-.16.16-.16h.89c.12,0,.17,0,.18.15s.07.45.11.72v-.06Z"/>
    </g>
    <g id="g194740">
      <path id="path194742" class="cls-25" d="m466.58,570.62c.27-.55.59-1.07.95-1.56,1.14-1.58,2.87-2.62,4.8-2.89.25,0,.57-.14.74,0s0,.46,0,.71-.16.6-.61.71c-1.53.42-2.87,1.37-3.76,2.68-.99,1.38-1.6,3-1.78,4.69-.19,1.46-.12,2.94.18,4.38,0,.15,0,.22-.14.24-.38.07-.75.15-1.12.24-.15,0-.19,0-.2-.16-.09-1.26-.2-2.53-.29-3.79-.12-1.57-.26-3.14-.32-4.71,0-1-.38-2-.52-3-.08-.37-.08-.76,0-1.13.05-.33.37-.56.7-.5.02,0,.04,0,.06.01.23.05.46.13.67.24.12,0,.12.15.14.25.16,1.17.38,2.33.48,3.51v.09h.02Z"/>
    </g>
    <g id="g194744">
      <path id="path194746" class="cls-25" d="m476.18,578.25c.03.28-.02.56-.12.82-.14.32-.32.48-.52.45-.27-.09-.47-.33-.5-.62v-.4l-.33-7.78-.3-7.08-.18-3.87c0-.15,0-.23.18-.25s.62-.08.93-.13c.15,0,.19,0,.2.17.12,1.75.19,3.49.25,5.24.1,2.73.15,5.45.21,8.17,0,1.52.09,3,.14,4.54,0,.25,0,.49.06.74h-.02Z"/>
    </g>
    <g id="g194748">
      <path id="path194750" class="cls-25" d="m474.66,587.52v5.28c0,.21-.06.27-.27.26-.33-.02-.67-.02-1,0-.21,0-.27-.05-.27-.26v-10.61c0-.22.06-.29.28-.28s.68,0,1,0,.25,0,.25.25v5.36Z"/>
    </g>
    <g id="g194752">
      <path id="path194754" class="cls-25" d="m463.27,573.4v6c0,.25-.08.31-.29.23-.15-.04-.29-.1-.43-.16-.27-.11-.43-.37-.41-.66v-10.75c.04-.52.48-.92,1-.92.06,0,.09,0,.09.09v6.19l.04-.02Z"/>
    </g>
    <g id="g194756">
      <path id="path194758" class="cls-25" d="m497.49,588.88v-4c0-.22.06-.27.27-.26.33.02.67.02,1,0,.22,0,.3,0,.29.28v7.9c0,.21-.06.27-.27.26-.33-.02-.67-.02-1,0-.21,0-.27-.05-.27-.26v-4l-.02.08Z"/>
    </g>
    <g id="g194760">
      <path id="path194762" class="cls-25" d="m454.6,542.52v1.52c0,.15,0,.2-.2.2h-2.94c-.15,0-.2-.05-.2-.2v-3c0-.15.05-.19.19-.19h3c.14,0,.18.05.18.19v1.52l-.03-.04Z"/>
    </g>
    <g id="g194764">
      <path id="path194766" class="cls-25" d="m499.22,582.44c0,.69-.34,1-1,1-.37,0-.7-.24-.8-.59-.16-.42-.07-.89.24-1.22.34-.23.78-.25,1.14-.07.37.16.42.51.42.87h0Z"/>
    </g>
    <g id="g194768">
      <path id="path194770" class="cls-25" d="m463.12,563.52c.02.33-.08.66-.28.93-.18.31-.57.41-.87.24,0,0-.02-.01-.03-.02-.09-.05-.17-.11-.25-.17-.33-.19-.44-.6-.25-.93.03-.04.05-.08.09-.12.18-.28.45-.49.77-.59.57-.18.84,0,.82.66h0Z"/>
    </g>
  </g>
  <g id="layer1">
    <g id="g3471">
      <g id="g3513">
        <path id="path6225" class="cls-15" d="m319.72,591.6c15.68,0,28.47-3.1,28.47-6.89s-12.79-6.9-28.47-6.9-28.49,3.1-28.49,6.9,12.79,6.89,28.49,6.89h0Z"/>
        <path id="path6227" class="cls-16" d="m317.02,590.55c13.14,0,23.87-2.6,23.87-5.79s-10.73-5.77-23.87-5.77-23.87,2.6-23.87,5.77,10.73,5.79,23.87,5.79h0Z"/>
        <path id="path6249" class="cls-18" d="m333.93,564.11l-1.2,11.74,11.91-4.21-11.6,4.91,9.91,7.43-10.4-6.83-2.01,11.65,1.2-11.74-11.93,4.21,11.61-4.91-9.92-7.43,10.42,6.83,2.01-11.65h0Z"/>
        <g id="g6257">
          <g class="cls-33">
            <g id="g6259">
              <path id="path6265" class="cls-22" d="m249.18,594.41h98.97v-49.42h-98.97v49.42h0Z"/>
            </g>
          </g>
        </g>
        <path id="path6267" class="cls-24" d="m296.68,588.76c-3.43-1.14-5.45-2.54-5.45-4.05,0-2.48,5.45-4.67,13.59-5.88-.46.39-.91.78-1.35,1.19-6.23,1.05-10.32,2.79-10.32,4.75,0,1.18,1.46,2.27,3.97,3.19-.15.27-.3.54-.44.81h0Z"/>
        <path id="path6269" class="cls-20" d="m297.12,587.95c-2.5-.92-3.97-2.01-3.97-3.19,0-1.96,4.09-3.7,10.32-4.75-2.59,2.39-4.73,5.07-6.36,7.93h0Z"/>
        <path id="path6271" class="cls-21" d="m322.93,570l-1.42-1.07,1.57,1.03c-.05.01-.1.02-.15.03h0Zm10.2-1.24l.44-2.57s.09.03.14.05l-.26,2.51c-.11,0-.22,0-.33,0h0Z"/>
        <g id="g6273">
          <g class="cls-34">
            <g id="g6275">
              <path id="path6281" class="cls-26" d="m271.55,570.67c21.15-19.54,55.45-19.54,76.6,0-17.81-30.23-62.12-40.92-98.97-20.66,7.46,6.89,14.91,13.77,22.37,20.66"/>
              <path id="path6283" class="cls-19" d="m282.74,581c13.31-19.18,42.59-24.52,65.41-10.33-21.15-19.54-55.45-19.54-76.6,0,3.73,3.44,7.46,6.89,11.19,10.33"/>
              <path id="path6285" class="cls-23" d="m293.92,591.33c5.46-18.82,29.74-29.51,54.23-20.66-22.82-14.19-52.11-8.85-65.41,10.33,3.73,3.44,7.45,6.89,11.18,10.33"/>
            </g>
          </g>
        </g>
        <path id="path6235" class="cls-9" d="m299.34,560.35c-13.5,9.94-4.79,29.92,12.23,28.6,17.02-1.28,22.09-22.29,6.99-30.07-6.09-3.14-13.78-2.57-19.22,1.47h0Z"/>
        <g id="g6121">
          <path id="path5574-7" class="cls-14" d="m310.29,561.57c-1.03,0-2.01.09-2.87.23-2.55.42-3.01,1.28-3.01,2.89v2.12h6.02v.71h-8.27c-1.75,0-3.28.97-3.76,2.82-.55,2.12-.58,3.44,0,5.65.43,1.64,1.45,2.82,3.2,2.82h2.07v-2.54c0-1.83,1.72-3.45,3.76-3.45h6.01c1.67,0,3.01-1.27,3.01-2.82v-5.29c0-1.51-1.38-2.64-3.01-2.89-1.03-.16-2.11-.23-3.13-.23h0Zm-3.25,1.7c.62,0,1.13.48,1.13,1.06s-.51,1.06-1.13,1.06-1.13-.47-1.13-1.06.5-1.06,1.13-1.06h0Z"/>
          <path id="path5576-0" class="cls-17" d="m317.18,567.51v2.47c0,1.91-1.76,3.52-3.76,3.52h-6.01c-1.65,0-3.01,1.3-3.01,2.82v5.29c0,1.51,1.42,2.39,3.01,2.82,1.9.52,3.73.61,6.01,0,1.51-.41,3.01-1.22,3.01-2.82v-2.12h-6.01v-.71h9.02c1.75,0,2.4-1.13,3.01-2.82.63-1.74.6-3.41,0-5.65-.43-1.61-1.26-2.82-3.01-2.82h-2.26Zm-3.38,13.4c.62,0,1.13.47,1.13,1.06s-.51,1.06-1.13,1.06-1.13-.48-1.13-1.06.51-1.06,1.13-1.06h0Z"/>
        </g>
        <g id="text6424" class="cls-30">
          <text class="cls-28" transform="translate(350.26 565.62) scale(1.08 1)"><tspan class="cls-7" x="0" y="0">P</tspan><tspan class="cls-35" x="9.81" y="0">ython</tspan></text>
          <text class="cls-28" transform="translate(350.26 582.57) scale(1.08 1)"><tspan x="0" y="0" xml:space="preserve">Colombia  </tspan></text>
        </g>
      </g>
    </g>
  </g>
  <g>
    <path class="cls-6" d="m336.09,509.02v-4.29c0-2.46.69-4.07,3.27-4.07,2.27,0,3.06,1.31,3.06,3.5v.96h-1.6v-.85c0-1.35-.03-2.28-1.44-2.28s-1.58.99-1.58,2.49v4.81c0,1.83.41,2.43,1.58,2.43,1.36,0,1.44-.97,1.44-2.42v-.9h1.6v.9c0,2.24-.68,3.75-3.06,3.75-2.58,0-3.27-1.77-3.27-4.03Z"/>
    <path class="cls-6" d="m345.96,500.77h1.64l2.59,12.15h-1.6l-.56-3.06h-2.47l-.58,3.06h-1.59l2.58-12.15Zm1.85,7.88l-1.02-5.48-1,5.48h2.02Z"/>
    <path class="cls-6" d="m351.42,500.77h2.44c2.43,0,3.57.92,3.57,3.22,0,1.42-.42,2.47-1.5,2.83l1.72,6.09h-1.63l-1.59-5.7h-1.32v5.7h-1.7v-12.15Zm2.34,5.23c1.43,0,2.04-.45,2.04-2.01,0-1.42-.39-2.01-1.94-2.01h-.75v4.02h.64Z"/>
    <path class="cls-6" d="m358.98,509.11v-4.61c0-2.4.87-3.84,3.33-3.84s3.31,1.46,3.31,3.84v4.62c0,2.38-.87,3.93-3.31,3.93s-3.33-1.53-3.33-3.94Zm4.94.38v-5.33c0-1.35-.25-2.17-1.6-2.17s-1.62.83-1.62,2.17v5.33c0,1.35.26,2.23,1.62,2.23s1.6-.88,1.6-2.23Z"/>
    <path class="cls-6" d="m367.29,500.77h1.69v10.93h3.1v1.21h-4.8v-12.15Z"/>
    <path class="cls-6" d="m373.33,500.77h1.66v12.15h-1.66v-12.15Z"/>
    <path class="cls-6" d="m376.96,500.77h1.16l3.45,8.07v-8.07h1.41v12.15h-1.08l-3.5-8.29v8.29h-1.44v-12.15Z"/>
    <path class="cls-6" d="m386.8,500.77h1.64l2.59,12.15h-1.6l-.56-3.06h-2.47l-.58,3.06h-1.59l2.58-12.15Zm1.85,7.88l-1.02-5.48-1,5.48h2.02Z"/>
    <path class="cls-6" d="m395.47,508.93v-4.06c0-2.66.69-4.2,3.25-4.2,2.28,0,3.17,1.14,3.17,3.54v.45h-1.59v-.38c0-1.58-.18-2.29-1.54-2.29-1.5,0-1.59,1.12-1.59,2.62v4.5c0,1.75.3,2.61,1.63,2.61s1.65-.94,1.65-2.77v-.84h-1.54v-1.2h3.07v6.01h-1.06l-.17-1.39c-.33.9-.96,1.54-2.16,1.54-2.28,0-3.12-1.52-3.12-4.14Z"/>
    <path class="cls-6" d="m403.5,509.11v-4.61c0-2.4.87-3.84,3.33-3.84s3.31,1.46,3.31,3.84v4.62c0,2.38-.87,3.93-3.31,3.93s-3.33-1.53-3.33-3.94Zm4.93.38v-5.33c0-1.35-.25-2.17-1.6-2.17s-1.62.83-1.62,2.17v5.33c0,1.35.25,2.23,1.62,2.23s1.6-.88,1.6-2.23Zm-1.14-12.4h1.61l-1.68,2.97h-.81l.88-2.97Z"/>
    <path class="cls-6" d="m412,500.77h1.67l2.15,9.85,2.16-9.85h1.65l.22,12.15h-1.36l-.14-8.82-2.05,8.82h-.96l-2.04-8.82-.13,8.82h-1.38l.22-12.15Z"/>
    <path class="cls-6" d="m421.71,500.77h4.71v1.26h-3.01v4.02h2.45v1.2h-2.45v4.46h3.04v1.21h-4.74v-12.15Z"/>
    <path class="cls-6" d="m427.44,511.7l3.57-9.72h-3.34v-1.21h5.14v.74l-3.76,10.2h3.76v1.21h-5.37v-1.21Z"/>
    <path class="cls-6" d="m327.35,527.11v-4.61c0-2.4.87-3.84,3.33-3.84s3.31,1.46,3.31,3.84v4.62c0,2.38-.87,3.93-3.31,3.93s-3.33-1.53-3.33-3.94Zm4.94.38v-5.33c0-1.35-.25-2.17-1.6-2.17s-1.62.83-1.62,2.17v5.33c0,1.35.26,2.23,1.62,2.23s1.6-.88,1.6-2.23Z"/>
    <path class="cls-6" d="m335.66,518.77h2.44c2.43,0,3.57.92,3.57,3.22,0,1.42-.42,2.47-1.5,2.83l1.72,6.09h-1.63l-1.59-5.7h-1.32v5.7h-1.69v-12.15Zm2.34,5.23c1.43,0,2.04-.45,2.04-2.01,0-1.42-.39-2.01-1.94-2.01h-.75v4.02h.65Z"/>
    <path class="cls-6" d="m343.22,526.93v-4.06c0-2.66.69-4.2,3.25-4.2,2.28,0,3.17,1.14,3.17,3.54v.45h-1.59v-.38c0-1.58-.18-2.29-1.54-2.29-1.5,0-1.59,1.12-1.59,2.62v4.5c0,1.75.3,2.61,1.63,2.61s1.65-.94,1.65-2.77v-.84h-1.54v-1.2h3.07v6.01h-1.06l-.17-1.39c-.33.9-.96,1.54-2.16,1.54-2.28,0-3.12-1.52-3.12-4.14Z"/>
    <path class="cls-6" d="m353.39,518.77h1.64l2.59,12.15h-1.6l-.56-3.06h-2.47l-.58,3.06h-1.59l2.58-12.15Zm1.85,7.88l-1.02-5.48-1,5.48h2.02Z"/>
    <path class="cls-6" d="m358.85,518.77h1.16l3.45,8.07v-8.07h1.41v12.15h-1.08l-3.5-8.29v8.29h-1.44v-12.15Z"/>
    <path class="cls-6" d="m366.86,518.77h1.66v12.15h-1.66v-12.15Z"/>
    <path class="cls-6" d="m370.12,529.7l3.57-9.72h-3.34v-1.21h5.15v.74l-3.77,10.2h3.77v1.21h-5.37v-1.21Z"/>
    <path class="cls-6" d="m378.67,518.77h1.64l2.59,12.15h-1.6l-.56-3.06h-2.47l-.58,3.06h-1.59l2.58-12.15Zm1.85,7.88l-1.02-5.48-1,5.48h2.02Z"/>
    <path class="cls-6" d="m384.13,518.77h2.64c2.7,0,3.6,1.25,3.6,3.71v4.47c0,2.58-.92,3.97-3.46,3.97h-2.77v-12.15Zm2.65,10.93c1.85,0,1.88-1.11,1.88-3.08v-3.94c0-1.88-.18-2.66-1.92-2.66h-.92v9.67h.96Z"/>
    <path class="cls-6" d="m391.81,527.11v-4.61c0-2.4.87-3.84,3.33-3.84s3.31,1.46,3.31,3.84v4.62c0,2.38-.87,3.93-3.31,3.93s-3.33-1.53-3.33-3.94Zm4.93.38v-5.33c0-1.35-.25-2.17-1.6-2.17s-1.62.83-1.62,2.17v5.33c0,1.35.26,2.23,1.62,2.23s1.6-.88,1.6-2.23Z"/>
    <path class="cls-6" d="m400.12,518.77h2.44c2.43,0,3.57.92,3.57,3.22,0,1.42-.42,2.47-1.5,2.83l1.72,6.09h-1.63l-1.59-5.7h-1.32v5.7h-1.69v-12.15Zm2.34,5.23c1.42,0,2.04-.45,2.04-2.01,0-1.42-.39-2.01-1.94-2.01h-.75v4.02h.65Z"/>
    <path class="cls-6" d="m411.34,518.77h1.69v10.93h3.11v1.21h-4.8v-12.15Z"/>
    <path class="cls-6" d="m417.38,518.77h1.67v12.15h-1.67v-12.15Zm1.29-3.69h1.6l-1.68,2.97h-.81l.88-2.97Z"/>
    <path class="cls-6" d="m421.01,518.77h2.64c2.7,0,3.6,1.25,3.6,3.71v4.47c0,2.58-.92,3.97-3.46,3.97h-2.77v-12.15Zm2.65,10.93c1.84,0,1.88-1.11,1.88-3.08v-3.94c0-1.88-.18-2.66-1.92-2.66h-.92v9.67h.96Z"/>
    <path class="cls-6" d="m428.92,518.77h4.71v1.26h-3.01v4.02h2.45v1.2h-2.45v4.46h3.04v1.21h-4.74v-12.15Z"/>
    <path class="cls-6" d="m435.02,518.77h2.44c2.43,0,3.57.92,3.57,3.22,0,1.42-.42,2.47-1.5,2.83l1.72,6.09h-1.63l-1.59-5.7h-1.32v5.7h-1.69v-12.15Zm2.34,5.23c1.42,0,2.04-.45,2.04-2.01,0-1.42-.39-2.01-1.94-2.01h-.75v4.02h.65Z"/>
  </g>
  <g>
    <path class="cls-25" d="m653.61,92.38v-10.01c0-5.74,1.61-9.49,7.63-9.49,5.29,0,7.14,3.05,7.14,8.16v2.24h-3.75v-2c0-3.15-.07-5.32-3.36-5.32s-3.67,2.31-3.67,5.81v11.24c0,4.27.94,5.67,3.67,5.67,3.19,0,3.36-2.28,3.36-5.64v-2.1h3.75v2.1c0,5.22-1.58,8.75-7.14,8.75-6.02,0-7.63-4.13-7.63-9.42Z"/>
    <path class="cls-25" d="m671.49,94.3v-5.88c0-4.55,1.4-7.46,5.92-7.46s5.88,2.91,5.88,7.46v5.88c0,4.55-1.4,7.46-5.88,7.46s-5.92-2.91-5.92-7.46Zm8.05.25v-6.34c0-2.27,0-4.48-2.13-4.48s-2.17,2.21-2.17,4.48v6.34c0,2.28,0,4.45,2.17,4.45s2.13-2.17,2.13-4.45Z"/>
    <path class="cls-25" d="m687.07,73.13h3.75v28.35h-3.75v-28.35Z"/>
    <path class="cls-25" d="m694.38,94.3v-5.88c0-4.55,1.4-7.46,5.92-7.46s5.88,2.91,5.88,7.46v5.88c0,4.55-1.4,7.46-5.88,7.46s-5.92-2.91-5.92-7.46Zm8.05.25v-6.34c0-2.27,0-4.48-2.13-4.48s-2.17,2.21-2.17,4.48v6.34c0,2.28,0,4.45,2.17,4.45s2.13-2.17,2.13-4.45Z"/>
    <path class="cls-25" d="m709.61,81.25h3.46v1.92c1.37-1.54,3.04-2.27,4.76-2.27,1.47,0,2.76.67,3.29,2.56,1.44-1.75,3.19-2.56,5.04-2.56,1.96,0,3.57,1.33,3.57,4.69v15.89h-3.43v-15.65c0-1.96-.7-2.49-1.75-2.49s-2.21.63-3.15,1.65v16.49h-3.43v-15.65c0-1.96-.7-2.49-1.75-2.49s-2.17.63-3.15,1.65v16.49h-3.46v-20.23Z"/>
    <path class="cls-25" d="m737.22,100.01v1.47h-3.75v-28.35h3.75v9.73c.88-1.02,2.1-1.89,3.81-1.89,4.24,0,4.62,5.18,4.62,7.6v4.9c0,4.31-1.02,8.3-5.01,8.3-1.43,0-2.59-.84-3.43-1.75Zm4.69-6.55v-4.9c0-2.52-.25-4.66-2.17-4.66-.98,0-1.85.49-2.52,1.02v12.99c.67.52,1.57.91,2.66.91,1.92,0,2.03-2.38,2.03-5.36Z"/>
    <path class="cls-25" d="m749.29,74.32h3.75v3.92h-3.75v-3.92Zm0,6.93h3.75v20.23h-3.75v-20.23Z"/>
    <path class="cls-25" d="m756.64,97.07c0-5.04,3.64-6.51,7.98-8.23v-1.44c0-2.45-.28-3.64-2.03-3.64-1.54,0-2.14,1.12-2.14,2.87v1.01l-3.71-.14c.07-4.48,1.96-6.55,6.09-6.55s5.53,2.24,5.53,6.41v9.24c0,1.89.17,3.57.35,4.87h-3.43c-.14-.73-.38-2.03-.49-2.98-.49,1.58-1.79,3.25-4.1,3.25s-4.06-2.31-4.06-4.69Zm7.98-.21v-5.74c-2.31,1.33-4.24,2.45-4.24,4.8,0,1.65.63,2.62,1.79,2.62,1.08,0,2.13-1.15,2.45-1.68Z"/>
  </g>
  <line class="cls-8" x1="143.26" y1="208.07" x2="650" y2="206.04"/>
  <text class="cls-2" transform="translate(214.15 150.97)"><tspan class="cls-37" x="0" y="0">D</tspan><tspan class="cls-31" x="12.77" y="0">J</tspan><tspan class="cls-40" x="20.39" y="0">ANGO GIRLS </tspan><tspan class="cls-39" x="132.19" y="0">C</tspan><tspan class="cls-42" x="143.26" y="0">O</tspan><tspan class="cls-38" x="156.28" y="0">L</tspan><tspan class="cls-40" x="165.56" y="0">OMBIA CE</tspan><tspan class="cls-38" x="252.69" y="0">R</tspan><tspan class="cls-42" x="264.18" y="0">TIFICA QUE:</tspan></text>
  <text class="cls-5" transform="translate(254.83 270.67)"><tspan class="cls-3"><tspan class="cls-40" x="0" y="0">HA </tspan><tspan class="cls-47" x="31.12" y="0">P</tspan><tspan class="cls-41" x="40.97" y="0">A</tspan><tspan class="cls-38" x="53.34" y="0">R</tspan><tspan class="cls-40" x="64.83" y="0">TICI</tspan><tspan class="cls-47" x="96.51" y="0">P</tspan><tspan class="cls-41" x="106.36" y="0">ADO EN CALI</tspan><tspan class="cls-48" x="217.58" y="0">D</tspan><tspan class="cls-41" x="230.05" y="0">AD DE</tspan></tspan><tspan class="cls-32"><tspan class="cls-41" x="94.14" y="25.2">ASI</tspan><tspan class="cls-43" x="123.96" y="25.2">S</tspan><tspan class="cls-41" x="134.4" y="25.2">TENTE</tspan></tspan></text>

  <text class="cls-1 cls-43" x="50%" y="352" dominant-baseline="middle" text-anchor="middle">En el {{event_name}}</text>
  <text class="cls-1 cls-43" x="50%" y="377" dominant-baseline="middle" text-anchor="middle">realizado en {{event_place_name}}</text>
  <text class="cls-1 cls-43" x="50%" y="402" dominant-baseline="middle" text-anchor="middle">el día {{event_date}} de {{event_start_hour}} a {{event_end_hour}}</text>
  <text class="cls-1 cls-43" x="50%" y="427" dominant-baseline="middle" text-anchor="middle">en la ciudad de {{event_city}}, COLOMBIA</text>
</svg>